<?xml version="1.0" encoding="utf-8"?>
<!-- Generator: Adobe Illustrator 21.0.0, SVG Export Plug-In . SVG Version: 6.00 Build 0)  -->
<svg version="1.1" id="Layer_1" xmlns="http://www.w3.org/2000/svg" xmlns:xlink="http://www.w3.org/1999/xlink" x="0px" y="0px"
	 viewBox="0 0 100 100" enable-background="new 0 0 100 100" xml:space="preserve">
<g opacity="0.64">
	<path fill="#FFFFFF" d="M5.875,53.594c-2.087-3.877-0.294-8.365,3.8-10.284c5.965-2.796,13.312,1.504,13.3,3.955
		C22.962,50.3,11.662,52.587,5.875,53.594z"/>
	<path fill="#B3B3B3" d="M20.126,46.474c-2.997-3.467-3.451-8.95,0-12.657c4.552-4.889,14.333-5.005,19.95-0.791
		c4.832,3.624,6.244,10.196,2.85,14.239C38.214,52.879,25.255,52.408,20.126,46.474z"/>
	<path fill="#E6E6E6" d="M38.176,44.892c3.825-3.393,12.164-2.207,17.1,0.791c0.864,0.525,6.115,3.713,5.7,7.911
		c-0.527,5.331-9.986,10.188-17.1,7.911C36.173,59.038,33.584,48.966,38.176,44.892z"/>
	<path fill="#E6E6E6" d="M6.825,50.43c-3.143,4.568-1.391,11.29,2.85,15.03c11.015,9.715,41.391,1.588,42.751-6.328
		c0.912-5.309-11.032-11.637-20.9-13.448C30.176,45.435,12.38,42.356,6.825,50.43z"/>
</g>
<g>
	<path fill="#FFFFFF" d="M38.766,64.332c-1.826-3.012-0.257-6.499,3.325-7.99c5.22-2.173,11.648,1.168,11.638,3.073
		C53.717,61.773,43.829,63.55,38.766,64.332z"/>
	<path fill="#B3B3B3" d="M51.235,58.8c-2.622-2.694-3.02-6.954,0-9.834c3.983-3.799,12.541-3.888,17.457-0.615
		c4.228,2.816,5.463,7.922,2.494,11.063C67.063,63.777,55.723,63.411,51.235,58.8z"/>
	<path fill="#E6E6E6" d="M67.029,57.571c3.347-2.636,10.643-1.715,14.963,0.615c0.756,0.408,5.351,2.885,4.988,6.146
		c-0.461,4.142-8.738,7.916-14.963,6.146C65.277,68.562,63.011,60.736,67.029,57.571z"/>
	<path fill="#E6E6E6" d="M39.597,61.873c-2.75,3.549-1.217,8.772,2.494,11.678c9.638,7.549,36.217,1.234,37.407-4.917
		c0.798-4.125-9.653-9.042-18.288-10.449C60.029,57.993,44.457,55.6,39.597,61.873z"/>
</g>
<g>
	<path fill="#FFFFFF" d="M17.438,66.99c-1.043-1.938-0.147-4.182,1.9-5.142c2.983-1.398,6.656,0.752,6.65,1.978
		C25.981,65.343,20.331,66.487,17.438,66.99z"/>
	<path fill="#B3B3B3" d="M24.563,63.43c-1.498-1.734-1.726-4.475,0-6.328c2.276-2.444,7.166-2.502,9.975-0.396
		c2.416,1.812,3.122,5.098,1.425,7.12C33.607,66.632,27.127,66.397,24.563,63.43z"/>
	<path fill="#E6E6E6" d="M33.588,62.639c1.913-1.696,6.082-1.103,8.55,0.396c0.432,0.262,3.057,1.857,2.85,3.955
		c-0.263,2.666-4.993,5.094-8.55,3.955C32.587,69.712,31.292,64.676,33.588,62.639z"/>
	<path fill="#E6E6E6" d="M17.913,65.408c-1.571,2.284-0.695,5.645,1.425,7.515c5.508,4.858,20.695,0.794,21.375-3.164
		c0.456-2.654-5.516-5.819-10.45-6.724C29.588,62.911,20.69,61.371,17.913,65.408z"/>
</g>
<g>
	<path fill="#FFFFFF" d="M34.568,71.104c-0.495-0.919-0.07-1.984,0.901-2.439c1.415-0.663,3.157,0.357,3.154,0.938
		C38.62,70.323,35.94,70.866,34.568,71.104z"/>
	<path fill="#B3B3B3" d="M37.947,69.416c-0.711-0.822-0.818-2.122,0-3.001c1.079-1.159,3.399-1.187,4.731-0.188
		c1.146,0.859,1.481,2.418,0.676,3.377C42.237,70.935,39.163,70.823,37.947,69.416z"/>
	<path fill="#E6E6E6" d="M42.227,69.041c0.907-0.805,2.884-0.523,4.055,0.188c0.205,0.124,1.45,0.881,1.352,1.876
		c-0.125,1.264-2.368,2.416-4.055,1.876C41.752,72.396,41.138,70.007,42.227,69.041z"/>
	<path fill="#E6E6E6" d="M34.793,70.354c-0.745,1.083-0.33,2.677,0.676,3.564c2.612,2.304,9.815,0.377,10.138-1.501
		c0.216-1.259-2.616-2.76-4.956-3.189C40.33,69.17,36.11,68.439,34.793,70.354z"/>
</g>
<g>
	<path fill="#FFFFFF" d="M57.568,66.104c-0.495-0.919-0.07-1.984,0.901-2.439c1.415-0.663,3.157,0.357,3.154,0.938
		C61.62,65.323,58.94,65.866,57.568,66.104z"/>
	<path fill="#B3B3B3" d="M60.947,64.416c-0.711-0.822-0.818-2.122,0-3.001c1.079-1.159,3.399-1.187,4.731-0.188
		c1.146,0.859,1.481,2.418,0.676,3.377C65.237,65.935,62.163,65.823,60.947,64.416z"/>
	<path fill="#E6E6E6" d="M65.227,64.041c0.907-0.805,2.884-0.523,4.055,0.188c0.205,0.124,1.45,0.881,1.352,1.876
		c-0.125,1.264-2.368,2.416-4.055,1.876C64.752,67.396,64.138,65.007,65.227,64.041z"/>
	<path fill="#E6E6E6" d="M57.793,65.354c-0.745,1.083-0.33,2.677,0.676,3.564c2.612,2.304,9.815,0.377,10.138-1.501
		c0.216-1.259-2.616-2.76-4.956-3.189C63.33,64.17,59.11,63.439,57.793,65.354z"/>
</g>
</svg>
