<?xml version="1.0" encoding="utf-8"?>
<!-- Generator: Adobe Illustrator 21.0.0, SVG Export Plug-In . SVG Version: 6.00 Build 0)  -->
<svg version="1.1" id="Layer_1" xmlns="http://www.w3.org/2000/svg" xmlns:xlink="http://www.w3.org/1999/xlink" x="0px" y="0px"
	 viewBox="0 0 94 17" style="enable-background:new 0 0 94 17;" xml:space="preserve">
<style type="text/css">
	.st0{fill:#FFFFFF;stroke:#29ABE2;stroke-width:2;stroke-miterlimit:10;}
	.st1{fill:#FFFFFF;stroke:#29ABE2;stroke-width:0.75;stroke-miterlimit:10;}
	.st2{fill:#FFFFFF;stroke:#29ABE2;stroke-miterlimit:10;}
</style>
<path class="st0" d="M-5.5,8.5c10.7,6.3,16.1,5.8,19,4c4.3-2.6,4.8-9,11-11c2.4-0.8,4.8-0.6,5,0c0.3,0.9-4,2.4-4,5
	c0,1.6,1.7,2.8,2,3c1.2,0.9,2.5,1,3,1"/>
<path class="st1" d="M24,12c0.3-0.5,1.6-2.3,4-3c2.8-0.8,5.3,0.6,6,1c2.2,1.2,2.3,2.5,4,3c1.8,0.6,3.7-0.2,5-1"/>
<path class="st1" d="M32.5,11.5c3.1-2,5.4-2.2,7-2c2.3,0.3,5.1,1.6,8,3c1.4,0.7,2.6,1.3,4,1c1.4-0.3,2.4-1.3,3-2"/>
<path class="st1" d="M51.5,11.5c0.6-2.5,1.7-2.9,2-3c1.8-0.5,4.8,2.1,7,7"/>
<path class="st2" d="M57.5,13.5c5.2-2.3,8.2-1.9,10-1c1.6,0.8,2.2,1.8,4,2c2.3,0.2,2.8-1.5,6-2c0.9-0.2,3.6-0.6,6,1
	c1.2,0.8,1.1,1.9,2,2c0.8,0.1,1.9-0.9,4-3c0.7-0.7,2.7-2.7,2-2l0,0c1.4,0.8,2.1,1.5,2,2c-0.2,1-2.8,1-3,2c-0.1,0.5,0.6,1.2,2,2"/>
</svg>
