<?xml version="1.0" encoding="utf-8"?>
<!-- Generator: Adobe Illustrator 21.0.0, SVG Export Plug-In . SVG Version: 6.00 Build 0)  -->
<svg version="1.1" id="Layer_1" xmlns="http://www.w3.org/2000/svg" xmlns:xlink="http://www.w3.org/1999/xlink" x="0px" y="0px"
	 viewBox="0 0 350 360" style="enable-background:new 0 0 350 360;" xml:space="preserve">
<style type="text/css">
	.st0{opacity:0.75;}
	.st1{clip-path:url(#SVGID_14_);fill:#959899;}
	.st2{clip-path:url(#SVGID_16_);fill:#959899;}
	.st3{fill:#959899;}
	.st4{clip-path:url(#SVGID_18_);fill:#959899;}
	.st5{clip-path:url(#SVGID_20_);fill:#959899;}
	.st6{clip-path:url(#SVGID_22_);fill:#959899;}
	.st7{clip-path:url(#SVGID_24_);fill:#959899;}
	.st8{enable-background:new    ;}
	.st9{clip-path:url(#SVGID_50_);enable-background:new    ;}
	.st10{fill:#434343;}
	.st11{clip-path:url(#SVGID_52_);enable-background:new    ;}
	.st12{fill:#545454;}
	.st13{fill:#525252;}
	.st14{fill:#4F4F4F;}
	.st15{fill:#5A5A5A;}
	.st16{fill:#414141;}
	.st17{clip-path:url(#SVGID_54_);enable-background:new    ;}
	.st18{fill:#454545;}
	.st19{fill:#484848;}
	.st20{fill:#4A4A4A;}
	.st21{fill:#4D4D4D;}
	.st22{fill:#707070;}
	.st23{clip-path:url(#SVGID_56_);enable-background:new    ;}
	.st24{fill:#124F6A;}
	.st25{fill:#124C67;}
	.st26{fill:#114A64;}
	.st27{clip-path:url(#SVGID_58_);enable-background:new    ;}
	.st28{fill:#0F3E54;}
	.st29{fill:#145472;}
	.st30{fill:#0E3D52;}
	.st31{clip-path:url(#SVGID_60_);enable-background:new    ;}
	.st32{fill:#0F4057;}
	.st33{fill:#10435A;}
	.st34{fill:#10455D;}
	.st35{fill:#114761;}
	.st36{fill:#18688D;}
	.st37{fill:#FFFFFF;}
</style>
<g>
	<g class="st0">
		<g>
			<defs>
				<path id="SVGID_1_" d="M169.2,349.3l-22.8-12.4c-3-1.6-5-5-5-9l22.8,12.4C164.2,344.4,166.2,347.7,169.2,349.3z"/>
			</defs>
			<clipPath id="SVGID_2_">
				<use xlink:href="#SVGID_1_"  style="overflow:visible;"/>
			</clipPath>
		</g>
		<g>
			<defs>
				<path id="SVGID_3_" d="M168.8,111.7l22.8,12.4c-1.6-0.9-3.6-1.3-5.7-1l-22.8-12.4C165.2,110.4,167.2,110.8,168.8,111.7z"/>
			</defs>
			<clipPath id="SVGID_4_">
				<use xlink:href="#SVGID_3_"  style="overflow:visible;"/>
			</clipPath>
		</g>
		<g>
			<defs>
				<path id="SVGID_5_" d="M164.6,137.6l-22.8-12.4c0-6.3,4.8-12.2,10.7-13l22.8,12.4C169.4,125.4,164.6,131.3,164.6,137.6z"/>
			</defs>
			<clipPath id="SVGID_6_">
				<use xlink:href="#SVGID_5_"  style="overflow:visible;"/>
			</clipPath>
		</g>
		<g>
			<defs>
				<path id="SVGID_7_" d="M239.8,6.2l73.4,39.9c-1.6-0.9-3.6-1.3-5.7-1L234.1,5.2C236.2,4.9,238.1,5.3,239.8,6.2z"/>
			</defs>
			<clipPath id="SVGID_8_">
				<use xlink:href="#SVGID_7_"  style="overflow:visible;"/>
			</clipPath>
		</g>
		<g>
			<defs>
				<path id="SVGID_9_" d="M86.2,186.8l-73.4-39.9c-3-1.6-5-5-5-9l73.4,39.9C81.2,181.9,83.2,185.2,86.2,186.8z"/>
			</defs>
			<clipPath id="SVGID_10_">
				<use xlink:href="#SVGID_9_"  style="overflow:visible;"/>
			</clipPath>
		</g>
		<g>
			<defs>
				<path id="SVGID_11_" d="M81.4,88.4L8,48.5c0-6.3,4.8-12.2,10.7-13l73.4,39.9C86.2,76.2,81.4,82.1,81.4,88.4z"/>
			</defs>
			<clipPath id="SVGID_12_">
				<use xlink:href="#SVGID_11_"  style="overflow:visible;"/>
			</clipPath>
		</g>
		<g>
			<defs>
				<path id="SVGID_13_" d="M169.2,349.3l-22.8-12.4c-3-1.6-5-5-5-9l22.8,12.4C164.2,344.4,166.2,347.7,169.2,349.3z"/>
			</defs>
			<clipPath id="SVGID_14_">
				<use xlink:href="#SVGID_13_"  style="overflow:visible;"/>
			</clipPath>
			<path class="st1" d="M169.2,349.3l-22.8-12.4c-3-1.6-5-5-5-9l22.8,12.4C164.2,344.4,166.2,347.7,169.2,349.3"/>
		</g>
		<g>
			<defs>
				<path id="SVGID_15_" d="M168.8,111.7l22.8,12.4c-1.6-0.9-3.6-1.3-5.7-1l-22.8-12.4C165.2,110.4,167.2,110.8,168.8,111.7z"/>
			</defs>
			<clipPath id="SVGID_16_">
				<use xlink:href="#SVGID_15_"  style="overflow:visible;"/>
			</clipPath>
			<path class="st2" d="M185.9,123.1l-22.8-12.4c1.3-0.2,2.5-0.1,3.7,0.2l22.8,12.4C188.5,123,187.2,122.9,185.9,123.1"/>
			<path class="st2" d="M189.6,123.3l-22.8-12.4c0.6,0.2,1.2,0.4,1.7,0.6l22.8,12.4C190.8,123.6,190.2,123.4,189.6,123.3"/>
			<path class="st2" d="M191.3,123.9l-22.8-12.4c0.1,0.1,0.2,0.1,0.3,0.2l22.8,12.4C191.5,124,191.4,123.9,191.3,123.9"/>
		</g>
		<polygon class="st3" points="175.3,124.6 152.5,112.2 163.1,110.7 185.9,123.1 		"/>
		<polygon class="st3" points="164.2,340.3 141.4,327.9 141.8,125.2 164.6,137.6 		"/>
		<g>
			<defs>
				<path id="SVGID_17_" d="M164.6,137.6l-22.8-12.4c0-6.3,4.8-12.2,10.7-13l22.8,12.4C169.4,125.4,164.6,131.3,164.6,137.6z"/>
			</defs>
			<clipPath id="SVGID_18_">
				<use xlink:href="#SVGID_17_"  style="overflow:visible;"/>
			</clipPath>
			<path class="st4" d="M164.6,137.6l-22.8-12.4c0-1.6,0.3-3.1,0.8-4.5l22.8,12.4C164.9,134.5,164.6,136,164.6,137.6"/>
			<path class="st4" d="M165.4,133.1l-22.8-12.4c0.2-0.6,0.5-1.2,0.8-1.8l22.8,12.4C165.9,131.9,165.6,132.5,165.4,133.1"/>
			<path class="st4" d="M166.2,131.3l-22.8-12.4c0.3-0.5,0.6-1,0.9-1.4l22.8,12.4C166.8,130.3,166.5,130.8,166.2,131.3"/>
			<path class="st4" d="M167.1,129.9l-22.8-12.4c0.3-0.4,0.6-0.8,1-1.2l22.8,12.4C167.7,129,167.4,129.4,167.1,129.9"/>
			<path class="st4" d="M168,128.6l-22.8-12.4c0.3-0.4,0.7-0.8,1.1-1.1l22.8,12.4C168.8,127.9,168.4,128.3,168,128.6"/>
			<path class="st4" d="M169.1,127.5l-22.8-12.4c0.4-0.4,0.8-0.7,1.3-1l22.8,12.4C170,126.8,169.6,127.2,169.1,127.5"/>
			<path class="st4" d="M170.4,126.5l-22.8-12.4c0.6-0.4,1.1-0.7,1.7-1l22.8,12.4C171.6,125.8,171,126.1,170.4,126.5"/>
			<path class="st4" d="M172.2,125.5l-22.8-12.4c1-0.5,2-0.8,3.1-0.9l22.8,12.4C174.2,124.7,173.2,125,172.2,125.5"/>
		</g>
		<path class="st3" d="M185.9,123.1c5.9-0.8,10.7,3.7,10.7,10l-0.4,202.7c0,6.3-4.8,12.2-10.7,13l-10.7,1.5
			c-5.9,0.8-10.7-3.7-10.7-10l0.4-202.7c0-6.3,4.8-12.2,10.7-13L185.9,123.1z"/>
		<g>
			<defs>
				<path id="SVGID_19_" d="M239.8,6.2l73.4,39.9c-1.6-0.9-3.6-1.3-5.7-1L234.1,5.2C236.2,4.9,238.1,5.3,239.8,6.2z"/>
			</defs>
			<clipPath id="SVGID_20_">
				<use xlink:href="#SVGID_19_"  style="overflow:visible;"/>
			</clipPath>
			<path class="st5" d="M307.5,45.1L234.1,5.2c1.3-0.2,2.5-0.1,3.7,0.2l73.4,39.9C310,45,308.8,45,307.5,45.1"/>
			<path class="st5" d="M311.2,45.3L237.8,5.4c0.6,0.2,1.2,0.4,1.7,0.6l73.4,39.9C312.3,45.7,311.8,45.5,311.2,45.3"/>
			<path class="st5" d="M312.9,45.9L239.5,6c0.1,0.1,0.2,0.1,0.3,0.2l73.4,39.9C313.1,46.1,313,46,312.9,45.9"/>
		</g>
		<g>
			<defs>
				<path id="SVGID_21_" d="M86.2,186.8l-73.4-39.9c-3-1.6-5-5-5-9l73.4,39.9C81.2,181.9,83.2,185.2,86.2,186.8z"/>
			</defs>
			<clipPath id="SVGID_22_">
				<use xlink:href="#SVGID_21_"  style="overflow:visible;"/>
			</clipPath>
			<path class="st6" d="M86.2,186.8l-73.4-39.9c-3-1.6-5-5-5-9l73.4,39.9C81.2,181.9,83.2,185.2,86.2,186.8"/>
		</g>
		<polygon class="st3" points="92.1,75.4 18.7,35.5 234.1,5.2 307.5,45.1 		"/>
		<polygon class="st3" points="81.2,177.8 7.8,137.8 8,48.5 81.4,88.4 		"/>
		<g>
			<defs>
				<path id="SVGID_23_" d="M81.4,88.4L8,48.5c0-6.3,4.8-12.2,10.7-13l73.4,39.9C86.2,76.2,81.4,82.1,81.4,88.4z"/>
			</defs>
			<clipPath id="SVGID_24_">
				<use xlink:href="#SVGID_23_"  style="overflow:visible;"/>
			</clipPath>
			<path class="st7" d="M81.4,88.4L8,48.5C8,47,8.3,45.4,8.8,44l73.4,39.9C81.7,85.4,81.4,86.9,81.4,88.4"/>
			<path class="st7" d="M82.2,83.9L8.8,44c0.2-0.6,0.5-1.2,0.8-1.8L83,82.1C82.7,82.7,82.4,83.3,82.2,83.9"/>
			<path class="st7" d="M83,82.1L9.6,42.2c0.3-0.5,0.6-1,0.9-1.4l73.4,39.9C83.6,81.2,83.3,81.6,83,82.1"/>
			<path class="st7" d="M83.9,80.7L10.5,40.8c0.3-0.4,0.6-0.8,1-1.2l73.4,39.9C84.5,79.9,84.2,80.3,83.9,80.7"/>
			<path class="st7" d="M84.9,79.5L11.5,39.5c0.3-0.4,0.7-0.8,1.1-1.1L86,78.4C85.6,78.7,85.2,79.1,84.9,79.5"/>
			<path class="st7" d="M86,78.4L12.6,38.4c0.4-0.4,0.8-0.7,1.3-1l73.4,39.9C86.8,77.7,86.4,78,86,78.4"/>
			<path class="st7" d="M87.3,77.3L13.9,37.4c0.6-0.4,1.1-0.7,1.7-1L89,76.3C88.4,76.6,87.8,77,87.3,77.3"/>
			<path class="st7" d="M89,76.3L15.6,36.4c1-0.5,2-0.8,3.1-0.9l73.4,39.9C91,75.6,90,75.9,89,76.3"/>
		</g>
		<path class="st3" d="M307.5,45.1c5.9-0.8,10.7,3.7,10.7,10l-0.2,89.3c0,6.3-4.8,12.2-10.7,13L91.9,187.8
			c-5.9,0.8-10.7-3.7-10.7-10l0.2-89.3c0-6.3,4.8-12.2,10.7-13L307.5,45.1z"/>
		<g>
			<defs>
				<path id="SVGID_25_" d="M169.2,349.3l-22.8-12.4c-3-1.6-5-5-5-9l22.8,12.4C164.2,344.4,166.2,347.7,169.2,349.3z"/>
			</defs>
			<clipPath id="SVGID_26_">
				<use xlink:href="#SVGID_25_"  style="overflow:visible;"/>
			</clipPath>
		</g>
		<g>
			<defs>
				<path id="SVGID_27_" d="M168.8,111.7l22.8,12.4c-1.6-0.9-3.6-1.3-5.7-1l-22.8-12.4C165.2,110.4,167.2,110.8,168.8,111.7z"/>
			</defs>
			<clipPath id="SVGID_28_">
				<use xlink:href="#SVGID_27_"  style="overflow:visible;"/>
			</clipPath>
		</g>
		<g>
			<defs>
				<path id="SVGID_29_" d="M164.6,137.6l-22.8-12.4c0-6.3,4.8-12.2,10.7-13l22.8,12.4C169.4,125.4,164.6,131.3,164.6,137.6z"/>
			</defs>
			<clipPath id="SVGID_30_">
				<use xlink:href="#SVGID_29_"  style="overflow:visible;"/>
			</clipPath>
		</g>
		<g>
			<defs>
				<path id="SVGID_31_" d="M239.8,6.2l73.4,39.9c-1.6-0.9-3.6-1.3-5.7-1L234.1,5.2C236.2,4.9,238.1,5.3,239.8,6.2z"/>
			</defs>
			<clipPath id="SVGID_32_">
				<use xlink:href="#SVGID_31_"  style="overflow:visible;"/>
			</clipPath>
		</g>
		<g>
			<defs>
				<path id="SVGID_33_" d="M86.2,186.8l-73.4-39.9c-3-1.6-5-5-5-9l73.4,39.9C81.2,181.9,83.2,185.2,86.2,186.8z"/>
			</defs>
			<clipPath id="SVGID_34_">
				<use xlink:href="#SVGID_33_"  style="overflow:visible;"/>
			</clipPath>
		</g>
		<g>
			<defs>
				<path id="SVGID_35_" d="M81.4,88.4L8,48.5c0-6.3,4.8-12.2,10.7-13l73.4,39.9C86.2,76.2,81.4,82.1,81.4,88.4z"/>
			</defs>
			<clipPath id="SVGID_36_">
				<use xlink:href="#SVGID_35_"  style="overflow:visible;"/>
			</clipPath>
		</g>
	</g>
	<g>
		<g>
			<g>
				<g>
					<g>
						<g>
							<defs>
								<path id="SVGID_37_" d="M186.2,352.3l-22.8-12.4c-3-1.6-5-5-5-9l22.8,12.4C181.2,347.4,183.2,350.7,186.2,352.3z"/>
							</defs>
							<clipPath id="SVGID_38_">
								<use xlink:href="#SVGID_37_"  style="overflow:visible;"/>
							</clipPath>
						</g>
						<g>
							<defs>
								<path id="SVGID_39_" d="M185.8,114.7l22.8,12.4c-1.6-0.9-3.6-1.3-5.7-1l-22.8-12.4C182.2,113.4,184.2,113.8,185.8,114.7z"/>
							</defs>
							<clipPath id="SVGID_40_">
								<use xlink:href="#SVGID_39_"  style="overflow:visible;"/>
							</clipPath>
						</g>
						<g>
							<defs>
								<path id="SVGID_41_" d="M181.6,140.6l-22.8-12.4c0-6.3,4.8-12.2,10.7-13l22.8,12.4C186.4,128.4,181.6,134.3,181.6,140.6z"/>
							</defs>
							<clipPath id="SVGID_42_">
								<use xlink:href="#SVGID_41_"  style="overflow:visible;"/>
							</clipPath>
						</g>
					</g>
				</g>
			</g>
			<g>
				<g>
					<g>
						<g>
							<defs>
								<path id="SVGID_43_" d="M256.8,9.2l73.4,39.9c-1.6-0.9-3.6-1.3-5.7-1L251.1,8.2C253.2,7.9,255.1,8.3,256.8,9.2z"/>
							</defs>
							<clipPath id="SVGID_44_">
								<use xlink:href="#SVGID_43_"  style="overflow:visible;"/>
							</clipPath>
						</g>
						<g>
							<defs>
								<path id="SVGID_45_" d="M103.2,189.8l-73.4-39.9c-3-1.6-5-5-5-9l73.4,39.9C98.2,184.9,100.2,188.2,103.2,189.8z"/>
							</defs>
							<clipPath id="SVGID_46_">
								<use xlink:href="#SVGID_45_"  style="overflow:visible;"/>
							</clipPath>
						</g>
						<g>
							<defs>
								<path id="SVGID_47_" d="M98.4,91.4L25,51.5c0-6.3,4.8-12.2,10.7-13l73.4,39.9C103.2,79.2,98.4,85.1,98.4,91.4z"/>
							</defs>
							<clipPath id="SVGID_48_">
								<use xlink:href="#SVGID_47_"  style="overflow:visible;"/>
							</clipPath>
						</g>
					</g>
				</g>
			</g>
		</g>
		<g>
			<g>
				<g>
					<g class="st8">
						<g class="st8">
							<defs>
								<path id="SVGID_49_" class="st8" d="M186.2,352.3l-22.8-12.4c-3-1.6-5-5-5-9l22.8,12.4C181.2,347.4,183.2,350.7,186.2,352.3
									z"/>
							</defs>
							<clipPath id="SVGID_50_">
								<use xlink:href="#SVGID_49_"  style="overflow:visible;"/>
							</clipPath>
							<g class="st9">
								<path class="st10" d="M186.2,352.3l-22.8-12.4c-3-1.6-5-5-5-9l22.8,12.4C181.2,347.4,183.2,350.7,186.2,352.3"/>
							</g>
						</g>
						<g class="st8">
							<defs>
								<path id="SVGID_51_" class="st8" d="M185.8,114.7l22.8,12.4c-1.6-0.9-3.6-1.3-5.7-1l-22.8-12.4
									C182.2,113.4,184.2,113.8,185.8,114.7z"/>
							</defs>
							<clipPath id="SVGID_52_">
								<use xlink:href="#SVGID_51_"  style="overflow:visible;"/>
							</clipPath>
							<g class="st11">
								<path class="st12" d="M202.9,126.1l-22.8-12.4c1.3-0.2,2.5-0.1,3.7,0.2l22.8,12.4C205.5,126,204.2,125.9,202.9,126.1"/>
								<path class="st13" d="M206.6,126.3l-22.8-12.4c0.6,0.2,1.2,0.4,1.7,0.6l22.8,12.4C207.8,126.6,207.2,126.4,206.6,126.3"/>
								<path class="st14" d="M208.3,126.9l-22.8-12.4c0.1,0.1,0.2,0.1,0.3,0.2l22.8,12.4C208.5,127,208.4,126.9,208.3,126.9"/>
							</g>
						</g>
						<g>
							<polygon class="st15" points="192.3,127.6 169.5,115.2 180.1,113.7 202.9,126.1 							"/>
						</g>
						<g>
							<polygon class="st16" points="181.2,343.3 158.4,330.9 158.8,128.2 181.6,140.6 							"/>
						</g>
						<g class="st8">
							<defs>
								<path id="SVGID_53_" class="st8" d="M181.6,140.6l-22.8-12.4c0-6.3,4.8-12.2,10.7-13l22.8,12.4
									C186.4,128.4,181.6,134.3,181.6,140.6z"/>
							</defs>
							<clipPath id="SVGID_54_">
								<use xlink:href="#SVGID_53_"  style="overflow:visible;"/>
							</clipPath>
							<g class="st17">
								<path class="st10" d="M181.6,140.6l-22.8-12.4c0-1.6,0.3-3.1,0.8-4.5l22.8,12.4C181.9,137.5,181.6,139,181.6,140.6"/>
								<path class="st18" d="M182.4,136.1l-22.8-12.4c0.2-0.6,0.5-1.2,0.8-1.8l22.8,12.4C182.9,134.9,182.6,135.5,182.4,136.1"/>
								<path class="st19" d="M183.2,134.3l-22.8-12.4c0.3-0.5,0.6-1,0.9-1.4l22.8,12.4C183.8,133.3,183.5,133.8,183.2,134.3"/>
								<path class="st20" d="M184.1,132.9l-22.8-12.4c0.3-0.4,0.6-0.8,1-1.2l22.8,12.4C184.7,132,184.4,132.4,184.1,132.9"/>
								<path class="st21" d="M185,131.6l-22.8-12.4c0.3-0.4,0.7-0.8,1.1-1.1l22.8,12.4C185.8,130.9,185.4,131.3,185,131.6"/>
								<path class="st14" d="M186.1,130.5l-22.8-12.4c0.4-0.4,0.8-0.7,1.3-1l22.8,12.4C187,129.8,186.6,130.2,186.1,130.5"/>
								<path class="st13" d="M187.4,129.5l-22.8-12.4c0.6-0.4,1.1-0.7,1.7-1l22.8,12.4C188.6,128.8,188,129.1,187.4,129.5"/>
								<path class="st12" d="M189.2,128.5l-22.8-12.4c1-0.5,2-0.8,3.1-0.9l22.8,12.4C191.2,127.7,190.2,128,189.2,128.5"/>
							</g>
						</g>
						<g>
							<path class="st22" d="M202.9,126.1c5.9-0.8,10.7,3.7,10.7,10l-0.4,202.7c0,6.3-4.8,12.2-10.7,13l-10.7,1.5
								c-5.9,0.8-10.7-3.7-10.7-10l0.4-202.7c0-6.3,4.8-12.2,10.7-13L202.9,126.1z"/>
						</g>
					</g>
				</g>
			</g>
			<g>
				<g>
					<g class="st8">
						<g class="st8">
							<defs>
								<path id="SVGID_55_" class="st8" d="M256.8,9.2l73.4,39.9c-1.6-0.9-3.6-1.3-5.7-1L251.1,8.2C253.2,7.9,255.1,8.3,256.8,9.2z
									"/>
							</defs>
							<clipPath id="SVGID_56_">
								<use xlink:href="#SVGID_55_"  style="overflow:visible;"/>
							</clipPath>
							<g class="st23">
								<path class="st24" d="M324.5,48.1L251.1,8.2c1.3-0.2,2.5-0.1,3.7,0.2l73.4,39.9C327,48,325.8,48,324.5,48.1"/>
								<path class="st25" d="M328.2,48.3L254.8,8.4c0.6,0.2,1.2,0.4,1.7,0.6l73.4,39.9C329.3,48.7,328.8,48.5,328.2,48.3"/>
								<path class="st26" d="M329.9,48.9L256.5,9c0.1,0.1,0.2,0.1,0.3,0.2l73.4,39.9C330.1,49.1,330,49,329.9,48.9"/>
							</g>
						</g>
						<g class="st8">
							<defs>
								<path id="SVGID_57_" class="st8" d="M103.2,189.8l-73.4-39.9c-3-1.6-5-5-5-9l73.4,39.9C98.2,184.9,100.2,188.2,103.2,189.8z
									"/>
							</defs>
							<clipPath id="SVGID_58_">
								<use xlink:href="#SVGID_57_"  style="overflow:visible;"/>
							</clipPath>
							<g class="st27">
								<path class="st28" d="M103.2,189.8l-73.4-39.9c-3-1.6-5-5-5-9l73.4,39.9C98.2,184.9,100.2,188.2,103.2,189.8"/>
							</g>
						</g>
						<g>
							<polygon class="st29" points="109.1,78.4 35.7,38.5 251.1,8.2 324.5,48.1 							"/>
						</g>
						<g>
							<polygon class="st30" points="98.2,180.8 24.8,140.8 25,51.5 98.4,91.4 							"/>
						</g>
						<g class="st8">
							<defs>
								<path id="SVGID_59_" class="st8" d="M98.4,91.4L25,51.5c0-6.3,4.8-12.2,10.7-13l73.4,39.9C103.2,79.2,98.4,85.1,98.4,91.4z"
									/>
							</defs>
							<clipPath id="SVGID_60_">
								<use xlink:href="#SVGID_59_"  style="overflow:visible;"/>
							</clipPath>
							<g class="st31">
								<path class="st28" d="M98.4,91.4L25,51.5c0-1.6,0.3-3.1,0.8-4.5l73.4,39.9C98.7,88.4,98.4,89.9,98.4,91.4"/>
								<path class="st32" d="M99.2,86.9L25.8,47c0.2-0.6,0.5-1.2,0.8-1.8L100,85.1C99.7,85.7,99.4,86.3,99.2,86.9"/>
								<path class="st33" d="M100,85.1L26.6,45.2c0.3-0.5,0.6-1,0.9-1.4l73.4,39.9C100.6,84.2,100.3,84.6,100,85.1"/>
								<path class="st34" d="M100.9,83.7L27.5,43.8c0.3-0.4,0.6-0.8,1-1.2l73.4,39.9C101.5,82.9,101.2,83.3,100.9,83.7"/>
								<path class="st35" d="M101.9,82.5L28.5,42.5c0.3-0.4,0.7-0.8,1.1-1.1L103,81.4C102.6,81.7,102.2,82.1,101.9,82.5"/>
								<path class="st26" d="M103,81.4L29.6,41.4c0.4-0.4,0.8-0.7,1.3-1l73.4,39.9C103.8,80.7,103.4,81,103,81.4"/>
								<path class="st25" d="M104.3,80.3L30.9,40.4c0.6-0.4,1.1-0.7,1.7-1L106,79.3C105.4,79.6,104.8,80,104.3,80.3"/>
								<path class="st24" d="M106,79.3L32.6,39.4c1-0.5,2-0.8,3.1-0.9l73.4,39.9C108,78.6,107,78.9,106,79.3"/>
							</g>
						</g>
						<g>
							<path class="st36" d="M324.5,48.1c5.9-0.8,10.7,3.7,10.7,10l-0.2,89.3c0,6.3-4.8,12.2-10.7,13l-215.4,30.3
								c-5.9,0.8-10.7-3.7-10.7-10l0.2-89.3c0-6.3,4.8-12.2,10.7-13L324.5,48.1z"/>
						</g>
					</g>
				</g>
			</g>
		</g>
		<g>
			<g>
				<g>
					<g>
						<g>
							<defs>
								<path id="SVGID_61_" d="M186.2,352.3l-22.8-12.4c-3-1.6-5-5-5-9l22.8,12.4C181.2,347.4,183.2,350.7,186.2,352.3z"/>
							</defs>
							<clipPath id="SVGID_62_">
								<use xlink:href="#SVGID_61_"  style="overflow:visible;"/>
							</clipPath>
						</g>
						<g>
							<defs>
								<path id="SVGID_63_" d="M185.8,114.7l22.8,12.4c-1.6-0.9-3.6-1.3-5.7-1l-22.8-12.4C182.2,113.4,184.2,113.8,185.8,114.7z"/>
							</defs>
							<clipPath id="SVGID_64_">
								<use xlink:href="#SVGID_63_"  style="overflow:visible;"/>
							</clipPath>
						</g>
						<g>
							<defs>
								<path id="SVGID_65_" d="M181.6,140.6l-22.8-12.4c0-6.3,4.8-12.2,10.7-13l22.8,12.4C186.4,128.4,181.6,134.3,181.6,140.6z"/>
							</defs>
							<clipPath id="SVGID_66_">
								<use xlink:href="#SVGID_65_"  style="overflow:visible;"/>
							</clipPath>
						</g>
					</g>
				</g>
			</g>
			<g>
				<g>
					<g>
						<g>
							<defs>
								<path id="SVGID_67_" d="M256.8,9.2l73.4,39.9c-1.6-0.9-3.6-1.3-5.7-1L251.1,8.2C253.2,7.9,255.1,8.3,256.8,9.2z"/>
							</defs>
							<clipPath id="SVGID_68_">
								<use xlink:href="#SVGID_67_"  style="overflow:visible;"/>
							</clipPath>
						</g>
						<g>
							<defs>
								<path id="SVGID_69_" d="M103.2,189.8l-73.4-39.9c-3-1.6-5-5-5-9l73.4,39.9C98.2,184.9,100.2,188.2,103.2,189.8z"/>
							</defs>
							<clipPath id="SVGID_70_">
								<use xlink:href="#SVGID_69_"  style="overflow:visible;"/>
							</clipPath>
						</g>
						<g>
							<defs>
								<path id="SVGID_71_" d="M98.4,91.4L25,51.5c0-6.3,4.8-12.2,10.7-13l73.4,39.9C103.2,79.2,98.4,85.1,98.4,91.4z"/>
							</defs>
							<clipPath id="SVGID_72_">
								<use xlink:href="#SVGID_71_"  style="overflow:visible;"/>
							</clipPath>
						</g>
					</g>
				</g>
			</g>
		</g>
	</g>
</g>
<path class="st37" d="M133,158L133,158c-2.8,0-5-2.3-5-5v-49c0-2.7,2.3-5,5-5l0,0c2.8,0,5,2.3,5,5v49C138,155.8,135.8,158,133,158z"
	/>
<path class="st37" d="M150,178L150,178c-2.8,0-5-2.2-5-5V82c0-2.8,2.2-5,5-5h0c2.8,0,5,2.2,5,5v91C155,175.8,152.8,178,150,178z"/>
</svg>
