<?xml version="1.0" encoding="utf-8"?>
<!-- Generator: Adobe Illustrator 21.0.0, SVG Export Plug-In . SVG Version: 6.00 Build 0)  -->
<svg version="1.1" id="Layer_1" xmlns="http://www.w3.org/2000/svg" xmlns:xlink="http://www.w3.org/1999/xlink" x="0px" y="0px"
	 viewBox="0 0 858 286" style="enable-background:new 0 0 858 286;" xml:space="preserve">
<style type="text/css">
	.st0{fill:#172F3A;}
	.st1{fill:#FFFFFF;}
</style>
<g>
	<path class="st0" d="M171.4,90.6l67.7,27.3l11.1,40.6L211.7,199h-80.5l-38.5-40.5l11.1-40.6L171.4,90.6 M171.4,9.9
		c-5.5,0-11.1,1.1-16.3,3.2L58.7,52C46,57.1,36.4,67.8,32.9,81l-20.6,75.7c-4,14.7,0,30.5,10.5,41.6l62,65.1
		c8.2,8.7,19.7,13.6,31.6,13.6h110c12,0,23.4-4.9,31.6-13.6l62-65.1c10.5-11.1,14.5-26.8,10.5-41.6L309.9,81
		c-3.6-13.2-13.1-23.9-25.8-29l-96.4-38.9C182.5,11,176.9,9.9,171.4,9.9L171.4,9.9z"/>
</g>
<g>
	<polygon class="st0" points="416,60 384,60 384,277 416,277 416,60 	"/>
</g>
<g>
	<polygon class="st0" points="535,243 384,243 384,277 535,277 535,243 	"/>
</g>
<g>
	<polygon class="st0" points="535,111 503,111 503,231 535,243 535,111 	"/>
</g>
<g>
	<polygon class="st0" points="603,111 571,111 571,277 603,277 603,111 	"/>
</g>
<g>
	<polygon class="st0" points="603,61 571,61 571,87 603,87 603,61 	"/>
</g>
<g>
	<polygon class="st0" points="226.1,146.9 193.5,179.5 291.5,277.5 324.1,244.9 226.1,146.9 	"/>
</g>
<g>
	<polygon class="st0" points="843,127 783,135 630,244 655.8,273.2 843,127 	"/>
</g>
<g>
	<polygon class="st0" points="843,95 626,95 635,119 843,127 843,95 	"/>
</g>
<g>
	<polygon class="st0" points="847,244 630,244 630,276 847,276 847,244 	"/>
</g>
<g>
	<path class="st1" d="M171.4,56c2.8,0,5.5,0.5,8.1,1.6l73.9,29.8c6.2,2.5,11,7.9,12.8,14.4l15.1,55.4c2,7.3,0,15.2-5.2,20.6
		l-46.5,48.8c-4.1,4.3-9.8,6.7-15.7,6.7h-85.1c-5.9,0-11.6-2.5-15.7-6.7l-46.5-48.8c-5.2-5.5-7.2-13.4-5.2-20.6l15.1-55.4
		c1.8-6.5,6.6-11.9,12.8-14.4l73.9-29.8C165.9,56.5,168.6,56,171.4,56 M171.4,34c-5.5,0-11.1,1.1-16.3,3.2L81.1,67
		c-12.7,5.1-22.2,15.8-25.8,29l-15.1,55.4c-4,14.7,0,30.5,10.5,41.6l46.5,48.8c8.2,8.7,19.7,13.6,31.6,13.6h85.1
		c12,0,23.4-4.9,31.6-13.6l46.5-48.8c10.5-11.1,14.5-26.8,10.5-41.6L287.4,96c-3.6-13.2-13.1-23.9-25.8-29l-73.9-29.8
		C182.5,35,176.9,34,171.4,34L171.4,34z"/>
</g>
</svg>
