<?xml version="1.0" encoding="utf-8"?>
<!-- Generator: Adobe Illustrator 21.0.0, SVG Export Plug-In . SVG Version: 6.00 Build 0)  -->
<svg version="1.1" id="Layer_1" xmlns="http://www.w3.org/2000/svg" xmlns:xlink="http://www.w3.org/1999/xlink" x="0px" y="0px"
	 viewBox="0 0 828 320" style="enable-background:new 0 0 828 320;" xml:space="preserve">
<style type="text/css">
	.st0{fill:#1C77A1;}
	.st1{fill:#FFFFFF;}
	.st2{fill:none;stroke:#1C77A1;stroke-width:13;stroke-miterlimit:10;}
</style>
<g>
	<path class="st0" d="M207,33c34.2,0,66.3,13.3,90.5,37.5C321.7,94.7,335,126.8,335,161s-13.3,66.3-37.5,90.5
		C273.3,275.7,241.2,289,207,289s-66.3-13.3-90.5-37.5S79,195.2,79,161s13.3-66.3,37.5-90.5S172.8,33,207,33 M207,11
		C124.2,11,57,78.2,57,161s67.2,150,150,150s150-67.2,150-150S289.8,11,207,11L207,11z"/>
</g>
<g>
	<path class="st0" d="M616,34c34.2,0,66.3,13.3,90.5,37.5C730.7,95.7,744,127.8,744,162s-13.3,66.3-37.5,90.5
		C682.3,276.7,650.2,290,616,290s-66.3-13.3-90.5-37.5C501.3,228.3,488,196.2,488,162s13.3-66.3,37.5-90.5
		C549.7,47.3,581.8,34,616,34 M616,12c-82.8,0-150,67.2-150,150s67.2,150,150,150s150-67.2,150-150S698.8,12,616,12L616,12z"/>
</g>
<g>
	<path class="st0" d="M410,85.7c-2.7,0-5.3,0.2-7.9,0.7L337,98c-5,0-9,4.1-9,9v11c0,5,4,9,9,9l63.7,14.8c3.1,0.7,6.2,1.1,9.3,1.1
		s6.2-0.4,9.3-1.1L483,127c5,0,9-4,9-9v-11c0-4.9-4-9-9-9l-65.1-11.6C415.3,85.9,412.7,85.7,410,85.7L410,85.7z"/>
</g>
<g>
	<rect x="724" y="163" class="st1" width="78" height="7"/>
	<path class="st0" d="M804,152h-82c-5,0-9,4-9,9v11c0,5,4,9,9,9h82c4.9,0,9-4,9-9v-11C813,156,808.9,152,804,152L804,152z"/>
</g>
<g>
	<rect x="21" y="148" class="st1" width="78" height="7"/>
	<path class="st0" d="M101,137H19c-4.9,0-9,4-9,9v11c0,5,4.1,9,9,9h82c5,0,9-4,9-9v-11C110,141,106,137,101,137L101,137z"/>
</g>
<path class="st2" d="M624.4,73.7c20.5-7.6,43-2.3,56.6,12.9c16.2,18.2,11.6,41.7,11,44.3"/>
</svg>
