<?xml version="1.0" encoding="utf-8"?>
<!-- Generator: Adobe Illustrator 21.0.0, SVG Export Plug-In . SVG Version: 6.00 Build 0)  -->
<svg version="1.1" id="Layer_1" xmlns="http://www.w3.org/2000/svg" xmlns:xlink="http://www.w3.org/1999/xlink" x="0px" y="0px"
	 viewBox="0 0 506 414" style="enable-background:new 0 0 506 414;" xml:space="preserve">
<style type="text/css">
	.st0{fill:#FFFFFF;}
	.st1{fill:#172F3A;}
</style>
<g>
	<polygon class="st0" points="92,58 60,58 60,275 92,275 92,58 	"/>
</g>
<g>
	<polygon class="st0" points="211,241 60,241 60,275 211,275 211,241 	"/>
</g>
<g>
	<polygon class="st0" points="211,109 179,109 179,229 211,241 211,109 	"/>
</g>
<g>
	<path class="st0" d="M355,266.5c-46.6,0-84.5-37.9-84.5-84.5c0-46.6,37.9-84.5,84.5-84.5c46.6,0,84.5,37.9,84.5,84.5
		C439.5,228.6,401.6,266.5,355,266.5z"/>
	<path class="st0" d="M355,106c41.9,0,76,34.1,76,76s-34.1,76-76,76s-76-34.1-76-76S313.1,106,355,106 M355,89
		c-51.4,0-93,41.6-93,93s41.6,93,93,93s93-41.6,93-93S406.4,89,355,89L355,89z"/>
</g>
<g>
	<polygon class="st0" points="262,182 262,349 329,349 303,249 262,182 	"/>
</g>
<circle class="st1" cx="355" cy="187" r="25"/>
</svg>
