<?xml version="1.0" encoding="utf-8"?>
<!-- Generator: Adobe Illustrator 21.0.0, SVG Export Plug-In . SVG Version: 6.00 Build 0)  -->
<svg version="1.1" id="Layer_1" xmlns="http://www.w3.org/2000/svg" xmlns:xlink="http://www.w3.org/1999/xlink" x="0px" y="0px"
	 viewBox="0 0 38 46" style="enable-background:new 0 0 38 46;" xml:space="preserve">
<style type="text/css">
	.st0{fill:#F9F9F9;stroke:#72E4EA;stroke-miterlimit:10;}
	.st1{fill:#F7931E;stroke:#DDA064;stroke-width:0.25;stroke-miterlimit:10;}
	.st2{fill:#FAFBFC;}
	.st3{fill:#172F3A;}
	.st4{font-family:'MyriadPro-Regular';}
	.st5{font-size:6.3812px;}
	.st6{fill:#F7931E;}
	.st7{font-size:12px;}
	.st8{fill:#72E4EA;}
	.st9{font-size:9px;}
</style>
<g>
	<path class="st0" d="M9.5,39.5c1-1.5,3.8-5,9-6.6c0.8-0.2,2.2,1.7,3,1.6c7.2-1.3,14.3-0.9,15,1.7c0.4,1.5-2,3.4-7,5.8l-23,2.5l-5-5
		H9.5z"/>
	<path class="st1" d="M15.5,1.5l-10,35l5.8-3.9c2-1.3,3.2-3.5,3.3-5.9L15.5,1.5z"/>
	<polygon class="st2" points="18,8 24,29 18.6,25.4 	"/>
</g>
<text transform="matrix(1.1996 -0.1623 0.1341 0.991 11.9802 41.9199)" class="st3 st4 st5">j</text>
<text transform="matrix(1 0 0 1 13.375 42.375)" class="st6 st4 st7">o</text>
<text transform="matrix(1 0 0 1 20.125 41.75)" class="st8 st4 st9">i</text>
<text transform="matrix(1.026 0 0 1 22.25 40.875)" class="st3 st4 st9">n</text>
</svg>
